<svg width="100%" min-height="0" viewBox="0 0 2840 1092" fill="none"
    xmlns="http://www.w3.org/2000/svg">
    <g id="Line-Art">
        <path id="line" d="M72 994.457C82.75 990.957 97.7852 987.707 115.25 987.707C129.5 987.707 171.25 995.457 201 1000.21C216.787 1002.73 243.688 985.207 237.25 965.957C234.534 957.835 231.822 949.595 223.75 952.457C217.322 954.736 214.9 960.881 217.5 965.957C223.75 978.16 255.044 963.457 262 946.457C266.289 935.976 252.768 924.017 262 917.457C271.5 910.707 278.5 921.207 284.75 926.707C293.2 934.143 312.5 941.957 339.5 903.957C347.25 872.707 325.5 785.707 360 742.707C360 742.707 372.5 731.207 372.5 720.957C372.5 716.832 368.875 711.332 362.625 711.332C358.198 711.332 353.443 719.541 355.25 723.582C360 734.207 388.5 756.207 393.5 794.457C393.5 829.457 388.25 849.957 393.5 882.457C397.235 905.581 404 912.03 412 930.457C417.67 943.518 423.588 949.767 427.5 963.457C431.5 977.457 425.25 984.957 419 987.207C412.75 989.457 404.5 987.207 404.5 979.957C404.5 955.851 413.75 948.707 421 898.707C428.25 848.707 430 725.207 430 604.957C438.25 598.707 445 593.957 453 586.207C455 579.707 455 566.457 455 547.457C455 539.407 445.427 527.542 440.25 533.707C436.86 537.745 440.322 543.891 442.5 544.457C473.25 552.457 506.25 551.707 545.5 552.895C550.875 549.582 559.5 544.457 559.5 544.457C559.5 544.457 545.5 555.332 545.5 557.27C545.5 585.707 545.5 602.582 545.5 631.457C545.5 638.832 546.25 642.082 539 642.582C533.71 642.947 532.688 635.718 534.125 629.457C535.875 621.832 553.5 617.457 562.625 617.457C571.75 617.457 575.625 630.332 577.75 635.207C578.625 738.332 576 876.957 576 928.957C576 941.713 588.639 953.536 592.125 957.582C596.222 962.339 618 977.457 618 977.457C618 977.457 628.679 983.477 630.75 990.207C632.25 995.082 628.625 1002.46 622.375 1002.46C616.125 1002.46 614 998.707 614 993.707C614 983.239 619.5 972.707 623 968.457C626.5 964.207 641.263 949.549 650.25 935.457C650.25 900.957 650.25 820.723 650.25 747.207C650.25 738.082 648.188 734.707 642 734.707C635.812 734.707 630.875 735.082 632 740.707C633.125 746.332 635.875 747.207 638.5 747.207C641.125 747.207 702.25 740.707 747 743.707C754.982 744.242 761.25 745.654 765.75 751.957C766.875 759.082 764.596 764.142 759.5 764.207C755.349 764.26 753.125 759.957 754.25 756.207C755.375 752.457 773.625 727.832 777.5 717.957C782.801 704.449 789.375 690.332 790 683.707C790.698 676.305 790 666.207 782.5 666.207C775 666.207 775.028 674.731 774.5 678.207C773 688.082 775.699 700.011 776.375 707.332C778.625 731.707 787 750.582 793.75 764.207C796.103 768.957 802.344 771.307 804.25 768.957C809.625 762.332 816.919 743.707 807 743.707C799 743.707 799.815 752.011 799 758.207C796.5 777.207 796.375 791.957 797.25 812.707C797.656 822.344 800.726 835.141 806.5 835.457C813.828 835.858 818.601 828.795 819.75 823.457C821.875 813.582 822.5 801.885 818.625 800.957C814.75 800.029 811.726 807.365 810 812.707C808.125 823.457 807.879 830.597 814.75 838.207C817.459 841.207 820.854 843.127 824.625 844.582C832.183 847.499 837.125 848.457 843.25 839.457C849.375 830.457 847 820.082 843.25 819.457C839.5 818.832 836.7 825.963 835.25 829.582C831.862 838.038 835.019 845.542 842.25 851.082C845.023 853.207 849.985 856.082 856.25 856.457C862.659 856.842 874.375 853.582 874.375 853.582C874.375 853.582 870.75 871.707 873.375 877.207C874.375 877.707 879.898 880.066 884.625 880.582C899.5 882.207 901.364 883.048 907.375 890.832C915 900.707 918.5 922.707 921.625 937.957C923.705 948.105 917.875 962.457 912.5 962.457C907.474 962.457 908.649 954.218 908.875 950.207C914.625 848.332 922.25 600.707 922.25 585.207C922.25 569.707 921 563.707 911.5 563.707C906.184 563.707 902 568.141 902 573.457C902 580.332 906 581.957 909.75 581.957C922.052 581.957 927.198 581.957 939.5 581.957C946.375 581.957 954.375 581.957 954.375 591.207C954.375 596.87 953.5 601.207 945.75 601.207C941.468 601.207 941.9 595.831 942 591.207C943.126 539.207 947.875 465.082 943.126 392.01C942.771 386.546 941.438 376.832 938.438 376.832C937.312 376.832 935.193 382.938 938.294 386.957C945.044 395.707 1020.29 390.385 1067.29 392.082C1070.31 392.191 1073.9 388.186 1071.94 386.957C1070.7 386.182 1068.72 385.57 1068.25 386.957C1062.25 404.707 1065.75 640.207 1065.75 666.707C1065.75 673.738 1069.75 677.931 1074.25 683.332C1077.38 687.082 1080.25 688.832 1080.25 694.957C1080.25 700.009 1076.88 703.457 1070.5 703.457C1066.38 703.457 1064.25 700.156 1064.25 694.957C1064.25 688.082 1070.88 666.707 1073.5 666.707C1088.75 666.707 1097.12 666.707 1113.25 666.707C1118.53 666.707 1127.98 664.438 1128.62 659.832C1129.07 656.631 1126 654.707 1122.5 654.707C1119 654.707 1117.66 658.741 1117.75 662.207C1118.5 692.582 1117.5 741.457 1119.75 756.457C1120.84 763.725 1126 766.858 1126 774.207C1126 778.707 1125 782.707 1119.75 782.707C1114.5 782.707 1112.46 778.776 1113.12 774.957C1114.75 765.582 1121 752.957 1127.25 752.957C1133.5 752.957 1148 752.957 1159.5 752.957C1162.8 752.957 1164.56 750.885 1166.5 748.207C1169.82 743.618 1170.56 731.608 1165.25 733.582C1159.88 735.582 1164.74 737.957 1167.5 737.957C1178.25 737.957 1202.25 737.957 1222 737.957C1226.77 737.957 1232.61 741.686 1232.5 746.457C1232.4 750.871 1225.65 756.661 1223.25 752.957C1217.25 743.707 1224.5 401.207 1224.5 294.207C1224.5 290.579 1222.94 282.957 1220.19 285.207C1217.62 287.309 1221.97 292.226 1231.62 292.957C1248.12 294.207 1339.99 294.207 1374.62 294.207C1384.38 294.207 1385.12 288.957 1382.75 287.207C1379.06 284.485 1376.42 293.102 1376.5 297.957C1378.5 424.207 1380.5 539.582 1381.25 693.457C1381.3 704.001 1382.12 707.582 1382.12 714.457C1382.12 721.332 1383 726.957 1376 726.957C1369 726.957 1366.06 718.182 1367.5 714.457C1371.12 705.082 1376 694.957 1384 690.457C1392 685.957 1408.18 683.684 1412.25 681.082C1416.32 678.481 1423 672.332 1423 670.207C1423 597.158 1427.5 546.957 1427.5 483.207C1427.5 477.487 1420.76 465.38 1418.12 470.457C1416.64 473.317 1420.79 478.063 1424 478.332C1438.88 479.582 1476.75 479.082 1501.25 479.707C1504 479.778 1506.71 475.09 1504.5 473.457C1502.69 472.12 1500.62 473.954 1500.62 476.207C1500.62 508.707 1505.5 693.207 1505.5 693.207C1505.5 693.207 1504.5 739.832 1510 759.957C1513.16 771.522 1514.69 777.718 1517.12 789.457C1521.14 808.828 1521.64 820.143 1522.5 839.957C1523.09 853.613 1523.38 864.207 1522.5 874.957C1521.99 881.188 1515.88 886.957 1510 884.957C1505.09 883.285 1501.25 878.457 1501.25 874.957C1501.25 871.457 1501.25 839.957 1501.25 839.957C1501.25 839.957 1500.39 809.16 1501.25 789.457C1502.59 758.835 1509.46 735.707 1512.38 711.207C1515.29 686.707 1521.12 427.957 1521.12 260.457C1521.12 255.541 1520.92 247.332 1516 247.332C1514.5 247.332 1513.86 253.957 1517.38 253.957C1533.5 253.957 1543.35 251.577 1558.25 251.832C1573.72 252.098 1580.76 252.126 1596.12 253.957C1616.21 256.351 1642.75 263.082 1647.38 263.082C1652 263.082 1653.12 259.457 1652 257.957C1650.01 255.302 1648.5 256.707 1646.69 257.863C1644.89 259.019 1651.25 518.707 1653.75 683.082C1653.89 692.504 1655.81 695.395 1657.5 703.52C1658.52 708.454 1657.06 714.457 1648.5 714.457C1644.98 714.457 1642.81 710.395 1642.81 706.02C1642.81 699.989 1648.19 691.957 1658.69 689.707C1663.56 689.145 1707.31 690.02 1737.75 690.02C1743.54 690.02 1753.15 691.421 1751.62 685.832C1750.75 682.624 1748.7 679.392 1746.75 682.082C1739.12 692.582 1746.62 806.973 1753.13 890.726C1754.48 908.069 1757.01 926.351 1757.01 935.101C1757.01 938.42 1755 941.832 1752.38 941.832C1744.38 941.832 1768.96 812.373 1779.88 729.457C1781.73 715.398 1784.62 702.207 1784.62 693.457C1784.62 685.862 1782.88 679.207 1774.88 679.207C1766.88 679.207 1767.2 691.457 1768 693.457C1770.64 700.052 1787.38 748.707 1789.5 759.957C1791.62 771.207 1797 836.957 1797 836.957C1797 836.957 1794.5 516.957 1797 400.957C1797.19 391.984 1807.25 387.457 1813.75 386.582C1841.94 382.788 1856.25 391.957 1886 391.957C1915.75 391.957 1934 386.582 1934 384.957C1934 382.207 1904.88 379.695 1886 378.582C1864.4 377.31 1838.28 377.877 1831 379.957C1828.2 380.757 1817.75 382.291 1812.88 382.957C1808 383.624 1803.8 379.418 1803.38 374.457C1801.75 355.457 1802.12 341.332 1803.38 319.207C1803.52 316.701 1805.25 311.332 1808.12 308.457C1819.86 296.725 1835.83 289.846 1846.25 287.457C1864.52 283.267 1885.62 282.957 1909 287.457C1915.51 288.711 1920.5 291.582 1920.5 299.957C1920.5 305.582 1913.01 308.04 1906.25 308.457C1884 309.832 1871.89 309.832 1849.88 309.832C1825 309.832 1817.88 303.457 1815.75 295.207C1812.45 282.382 1814 255.957 1814 235.832C1814 228.49 1822.07 223.263 1824.62 221.207C1831 216.082 1843.6 209.979 1856.98 208.319C1874.1 206.194 1880.5 207.207 1895.88 209.207C1901.88 209.988 1909 211.403 1909 217.457C1909 222.582 1902.15 226.707 1895.88 226.707C1880.75 226.707 1870.38 226.707 1853 226.707C1842.43 226.707 1836.62 220.207 1832.62 209.832C1831 173.207 1832.75 112.957 1833.5 95.4574C1833.65 92.0504 1826.87 87.4582 1825.5 90.5824C1824.95 91.8346 1825.72 96.4574 1827.62 96.4574C1857.25 96.4574 1911.12 96.4574 1931.62 96.4574C1934.55 96.4574 1936.5 94.0823 1935.5 91.9574C1934.5 89.8325 1932.38 89.4576 1930.38 91.9574C1928.38 94.4573 1932 173.457 1937.38 207.957C1939.23 219.89 1946 225.957 1950.5 235.957C1952.12 258.207 1950.5 296.457 1950.5 296.457C1950.5 296.457 1959.75 301.332 1963 309.957C1963 339.457 1963 384.957 1963 384.957C1963 384.957 1963 393.457 1975 400.957C1975 461.207 1974 688.957 1974 845.707C1974 857.409 1974.94 864.663 1980.5 874.957C1985.5 884.207 1999.02 897.537 2004 914.957C2007.5 927.207 2002 933.457 1994 933.457C1986 933.457 1982.83 928.717 1983.5 922.957C1984.75 912.207 2006.5 865.207 2006.5 852.207C2006.5 839.207 2007.5 524.707 2007.5 508.457C2007.5 505.957 2004.15 508.294 2003.5 510.707C2001.92 516.55 2017.75 515.957 2020.62 512.457C2023.88 510.707 2025.5 487.957 2025.5 487.957C2025.5 487.957 2027.25 439.832 2027.25 420.457C2027.25 416.232 2024.88 412.582 2022.12 412.582C2020.12 412.582 2022.12 421.332 2024.12 422.832C2032.88 422.832 2035.46 421.727 2042 418.832C2056.12 412.582 2064.95 409.151 2076.5 404.957C2088.05 400.764 2111.64 401.377 2134.75 404.957C2157.86 408.538 2183.88 423.707 2203.75 434.207C2207.75 436.32 2211.31 431.651 2209.5 429.332C2207.25 426.457 2202.99 426.707 2202.75 429.332C2200.75 451.582 2204.5 495.208 2204.5 502.957C2204.5 510.707 2205.62 517.582 2215 521.957C2222.41 525.415 2231.75 513.332 2230.75 511.582C2229.55 509.478 2223 512.659 2223 515.082C2223 537.957 2222.75 774.707 2224.25 891.207C2224.37 900.678 2227.7 905.048 2230.75 911.957C2234.32 920.034 2240 919.627 2240 928.457C2240 933.457 2234.25 948.957 2229 948.957C2223.75 948.957 2223 939.948 2223 933.457C2223 921.707 2233.59 905.28 2238 882.207C2242 847.707 2244.5 824.207 2246.75 792.457C2247.53 781.488 2251.62 766.082 2243.75 759.582C2241.49 757.718 2237 760.028 2237 762.957C2237 774.082 2238.65 775.056 2242 781.957C2245.82 789.83 2249.88 801.082 2256.88 795.957C2259.5 794.035 2259.5 788.582 2259.5 783.457C2259.5 769.971 2260.67 763.624 2260.5 752.957C2260.33 742.291 2256.88 740.832 2253 743.957C2251.02 745.551 2248.4 751.002 2253 751.582C2265.88 753.207 2276.75 752.957 2291.62 752.957C2299.12 752.957 2300.41 745.545 2298.5 743.957C2296.59 742.369 2292.88 745.207 2291 748.207C2289.62 757.332 2286.75 779.332 2291 790.957C2292.03 793.786 2294.35 795.934 2297.87 795.934C2303.24 795.934 2305.62 775.424 2305.62 768.559C2305.62 765.957 2303.73 761.858 2302.62 766.082C2294.25 798.082 2297.61 846.448 2305.5 896.957C2306.75 904.957 2308.75 919.207 2312.62 927.082C2314.75 931.398 2319.87 936.457 2324.75 936.457C2333.5 936.457 2344.88 928.151 2343.5 917.957C2342.64 911.61 2341.5 905.832 2335.88 905.832C2331.32 905.832 2331.12 911.957 2331.12 914.832C2331.12 925.957 2337.37 930.035 2345.12 936.457C2352.45 942.521 2361.12 943.957 2368.25 942.832C2375.38 941.707 2386.19 938.777 2394.88 931.332C2400.51 926.501 2404.12 920.457 2405.62 917.207C2407.12 913.957 2412.74 903.245 2409.25 897.832C2406.6 893.716 2402.7 893.788 2398.38 896.082C2394.56 898.107 2395.36 902.403 2395.75 906.707C2398.38 915.957 2406.3 919.957 2415.62 919.957C2425.12 919.957 2430.68 919.702 2438.5 914.957C2444.86 911.098 2451.75 901.957 2453.5 896.957C2455.25 891.957 2455.75 868.957 2455.75 851.832C2455.75 833.18 2453.92 820.457 2452.25 805.457C2450.58 790.457 2446.75 785.332 2445.5 775.457C2444.38 766.603 2444.88 758.957 2448.38 751.332C2450.23 747.286 2452.37 745.624 2456.5 743.957C2462.99 741.337 2468.88 746.69 2472 752.957C2474.52 758.027 2472 767.457 2472 767.457L2458.5 775.457C2458.5 775.457 2448.62 769.457 2442.12 759.957C2442.12 768.457 2434.8 774.958 2426 779.457C2422 781.503 2412.62 782.486 2405 779.457C2398.08 776.707 2389.99 771.228 2391 767.457C2392.53 761.756 2397.13 760.474 2403 761.082C2407.62 761.561 2410.75 764.012 2413.12 769.457C2415.5 774.902 2413.34 787.438 2407.62 795.957C2404.26 800.973 2402.5 803.082 2396.62 806.832C2390.75 810.582 2379.26 808.97 2375.5 805.457C2374.33 804.366 2366.24 795.117 2369.12 788.707C2372.01 782.298 2377.86 777.828 2384.5 779.457C2390.88 781.021 2393.12 788.707 2393.12 793.582C2393.12 803.588 2396.62 808.783 2388 817.957C2383.09 823.176 2378.91 827.22 2371.88 828.207C2366.45 828.969 2351 825.082 2355 813.457C2356.46 809.211 2365.12 809.957 2367.75 813.457C2371.96 819.066 2366.33 829.624 2362.5 830.957C2358.67 832.291 2353.02 833.441 2351 830.957C2347.75 826.957 2345.88 816.957 2348.5 813.457C2348.5 813.457 2371 778.332 2384.5 767.457C2391.06 762.17 2395.49 774.726 2403.5 776.707C2417.05 780.059 2425.25 783.582 2437.82 770.681C2442.34 766.045 2446.43 763.613 2445.5 757.207C2443.72 745.035 2414 757.207 2414 757.207L2422 741.457C2425.08 739.624 2431.55 736.057 2432.75 736.457C2433.95 736.857 2442.58 743.624 2446.75 746.957C2450.92 750.291 2439 756.207 2434.25 756.207C2417 759.957 2412.47 756.73 2401 750.207C2398.01 748.507 2395.91 747.883 2393.75 745.207C2388.97 739.283 2388.13 730.849 2393.75 725.707C2398.45 721.41 2405.35 720.113 2410 724.457C2414.86 728.997 2412.83 736.02 2409 741.457C2403.82 748.82 2395 747.343 2386.25 745.207C2379.74 743.618 2376.02 741.398 2371.5 736.457C2369.12 733.86 2366.93 732.451 2366.5 728.957C2365.8 723.25 2370.75 715.362 2376 717.707C2380.18 719.572 2379.98 721.158 2379.52 725.707C2378.3 737.694 2360.75 730.207 2347.5 731.457C2343.43 730.809 2337.57 732.638 2338.25 728.957C2338.53 727.439 2340.5 725.707 2340.5 725.707C2340.5 725.707 2334.88 728.034 2331.25 727.457C2326.16 726.648 2321.27 724.586 2320.75 719.457C2320.36 715.634 2323.05 713.859 2325.25 710.707C2329.75 706.957 2357.25 702.457 2374 706.957C2383.72 709.569 2389.61 708.862 2399.5 710.707C2408.35 712.357 2413.73 712.154 2422 715.707C2428.08 718.318 2436.5 724.457 2436.5 724.457C2436.5 724.457 2441.79 752.539 2450.5 746.957C2454.2 744.591 2456.5 737.457 2456.5 737.457C2456.5 737.457 2456.56 734.714 2456.5 732.957C2456.26 726.124 2459.69 718.618 2453.5 715.707C2447.99 713.114 2440.37 715.522 2439 721.457C2437.78 726.734 2441.08 731.624 2446.75 732.957C2452.42 734.291 2463.75 736.407 2463.75 734.207C2463.75 731.457 2467.75 719.457 2465.75 719.457C2464.15 719.457 2455.58 713.624 2451.5 710.707L2441.25 702.457C2441.25 702.457 2432.71 706.235 2429.5 710.707C2426.13 715.406 2422.81 718.7 2427.25 723.207C2429.27 725.263 2430.22 726.465 2432.75 727.457C2440.63 730.55 2449.5 713.707 2449.5 713.707L2436.5 698.707C2436.5 698.707 2424.38 682.633 2423.25 688.957C2422 695.957 2412.25 699.957 2412.25 699.957C2406 699.041 2393 696.957 2391 695.957C2389 694.957 2379.52 691.332 2377.25 685.332C2374.98 679.332 2380.59 674.048 2377.25 668.957C2374.63 664.97 2372.44 662.469 2368 664.207C2363.11 666.12 2360.12 673.166 2363.75 676.957C2365.91 679.215 2366 679.018 2369.12 678.977C2376.61 678.879 2376.57 665.078 2383.88 666.727C2393.75 668.957 2404 674.937 2407 676.957C2410 678.977 2398 686.357 2398 686.957C2398 687.557 2385.56 697.716 2393.12 699.957C2410 704.957 2426 686.957 2426 686.957L2443 699.957L2456.5 717.707C2456.5 717.707 2475.16 723.114 2480.62 715.707C2478 709.332 2477 699.957 2477 699.957V674.707L2474.25 657.457C2474.25 657.457 2462.61 657.2 2456.5 660.707C2447.97 665.601 2444.96 672.322 2443 681.957C2441.91 687.315 2442.09 690.567 2443 695.957C2444.26 703.377 2450.5 713.707 2450.5 713.707C2450.5 713.707 2463.75 704.957 2473.62 703.207C2475.75 697.457 2475.06 670.832 2474.25 670.832C2464.44 672.332 2458 671.332 2453.5 670.832C2449 670.332 2450.5 663.883 2450.5 655.457C2450.5 651.957 2453 641.832 2454.75 635.207C2455.75 631.422 2458.5 626.207 2475.75 622.707C2475.75 630.457 2475.75 638.706 2475.75 648.957C2475.75 670.827 2475.75 704.957 2475.75 704.957C2475.75 704.957 2482.49 698.171 2487.75 698.707C2492.17 699.158 2494.2 701.729 2497.25 704.957C2500.88 708.798 2503.49 711.412 2503.5 716.957C2503.51 721.689 2499 728.957 2499 728.957L2486.5 734.207C2486.5 734.207 2482.79 733.354 2480 732.082C2479.38 728.957 2479.38 709.225 2481.75 704.957C2485.4 698.377 2495.25 691.207 2495.25 691.207C2495.25 691.207 2490.1 703.591 2495.25 706.957C2499.39 709.663 2503.87 706.144 2508.5 703.207C2513.62 699.957 2520.12 693.038 2527.38 685.332C2529.18 683.419 2531.71 679.472 2534.12 680.207C2539.88 681.957 2542.68 680.01 2546.75 676.957C2554.23 671.351 2553.25 666.707 2553.25 666.707C2553.25 666.707 2545.45 662.899 2536.12 666.707C2530.82 668.873 2525.75 672.332 2524.75 674.707C2523.78 677.007 2530.22 681.34 2528 680.207C2521.62 676.957 2520.01 677.88 2516.25 678.082C2510.12 678.413 2506.95 681.356 2502.25 685.332C2497.35 689.482 2494.01 691.573 2492.5 697.457C2490.26 706.141 2503.5 709.582 2501.5 718.582C2500.57 722.756 2499 723.707 2505 728.957C2513.5 728.957 2542.75 727.457 2566 731.457C2574.02 732.837 2575.75 737.291 2579.5 740.207C2579.5 740.207 2574.33 742.965 2571.25 745.207C2568.3 747.35 2566.83 749.055 2563.38 750.207C2557.75 752.082 2550.38 752.957 2544 752.957C2537.62 752.957 2526.25 751.207 2528.12 750.207C2530 749.207 2534.12 742.832 2534.12 738.957C2534.12 735.082 2530.75 727.457 2525.75 727.457C2520.75 727.457 2518.75 734.207 2518.75 740.207C2518.75 745.246 2521.92 747.291 2524.75 750.207C2527.58 753.124 2508.5 758.957 2511 758.957C2518.75 763.582 2521.6 763.465 2523 769.957C2523.35 771.588 2523.86 779.457 2523 781.957C2521.5 786.332 2519.02 788.591 2513.5 791.207C2511.12 792.332 2506.25 793.707 2502.25 791.207C2499 786.332 2499 772.457 2499 772.457C2499 772.457 2501.25 759.457 2508.5 758.957C2511.5 757.957 2497.25 757.207 2492.5 754.707C2487.47 752.062 2490.84 745.124 2486.5 741.457C2483.08 738.566 2480.22 737.798 2475.75 737.457C2470.96 737.092 2466.68 736.392 2463.75 740.207C2459.28 746.04 2468.43 753.999 2475.75 754.707C2478.93 755.016 2483.75 752.957 2483.75 752.957C2483.75 752.957 2473.75 755.696 2473.75 761.082C2473.75 766.707 2470.75 771.082 2461.62 775.457C2463.25 780.707 2467.73 786.458 2472.75 790.457C2477.77 794.457 2485.03 797.974 2492.5 795.957C2495.24 795.217 2503.5 789.082 2503.5 789.082C2503.5 789.082 2491.56 797.744 2484.25 795.957C2474.76 793.639 2467.5 786.332 2462.25 778.332C2459.62 778.332 2457.82 781.611 2455.75 786.332C2452.25 794.332 2448.88 807.957 2447.62 814.207C2444.4 830.332 2442.04 849.852 2443.75 866.207C2444.5 873.395 2448.73 877.95 2450 882.895C2452.38 892.145 2452.75 894.332 2458.5 903.707C2462.05 909.494 2471.75 908.169 2471.75 914.957C2471.75 916.895 2470.74 922.211 2467.75 925.582C2464.94 928.749 2460.14 930.685 2457.56 929.52C2455.27 928.484 2454.75 925.675 2454.75 921.957C2454.75 917.207 2459.89 906.301 2468.25 901.957C2474.86 898.522 2479.63 898.433 2486.94 899.895C2493.5 901.207 2502.12 904.145 2510.94 909.77C2522.54 917.173 2529.16 921.647 2542.25 925.895C2554.17 929.765 2563.62 930.332 2574 930.707C2585.2 931.112 2599.15 929.504 2607 919.082C2611.86 912.634 2611 898.707 2611 898.707C2611 898.707 2614.85 916.362 2623.75 923.332C2627.5 926.27 2630.68 927.825 2635.31 929.207C2639.31 930.401 2650.91 928.319 2660.44 924.145C2665.04 922.127 2666.79 918.269 2671.75 917.457C2675.19 916.895 2685.69 926.332 2702.69 928.332C2717.33 930.055 2724.62 928.332 2740.25 929.457C2751.4 930.26 2768 936.457 2768 936.457" stroke="#8C5E4A" stroke-width="10" />
    </g>

    <defs>
        <style>


      #Line-Art {
        stroke-dasharray: 17149.30859375;
        stroke-dashoffset: 17149.30859375;
        animation: lineIn 7.5s ease-in-out forwards;
      }

      @keyframes lineIn {
        100% {
          stroke-dashoffset: 0;
        }
      }
        </style>
    </defs>
</svg>